<?xml version="1.0" encoding="UTF-8" standalone="no"?>
<!-- Created with Inkscape (http://www.inkscape.org/) -->

<svg
   xmlns:dc="http://purl.org/dc/elements/1.1/"
   xmlns:cc="http://creativecommons.org/ns#"
   xmlns:rdf="http://www.w3.org/1999/02/22-rdf-syntax-ns#"
   xmlns:svg="http://www.w3.org/2000/svg"
   xmlns="http://www.w3.org/2000/svg"
   xmlns:xlink="http://www.w3.org/1999/xlink"
   xmlns:sodipodi="http://sodipodi.sourceforge.net/DTD/sodipodi-0.dtd"
   xmlns:inkscape="http://www.inkscape.org/namespaces/inkscape"
   width="210mm"
   height="297mm"
   viewBox="0 0 210 297"
   version="1.1"
   id="svg8"
   inkscape:version="0.92.5 (2060ec1f9f, 2020-04-08)"
   sodipodi:docname="sprites.svg">
  <defs
     id="defs2">
    <linearGradient
       inkscape:collect="always"
       id="linearGradient832">
      <stop
         style="stop-color:#ffffff;stop-opacity:1;"
         offset="0"
         id="stop828" />
      <stop
         style="stop-color:#ffffff;stop-opacity:0;"
         offset="1"
         id="stop830" />
    </linearGradient>
    <linearGradient
       inkscape:collect="always"
       id="linearGradient822">
      <stop
         style="stop-color:#ffffff;stop-opacity:1;"
         offset="0"
         id="stop818" />
      <stop
         style="stop-color:#ffffff;stop-opacity:0;"
         offset="1"
         id="stop820" />
    </linearGradient>
    <linearGradient
       inkscape:collect="always"
       xlink:href="#linearGradient822"
       id="linearGradient824"
       x1="37.596386"
       y1="83.516914"
       x2="33.434338"
       y2="83.562904"
       gradientUnits="userSpaceOnUse" />
    <radialGradient
       inkscape:collect="always"
       xlink:href="#linearGradient832"
       id="radialGradient834"
       cx="38.803608"
       cy="83.643387"
       fx="38.803608"
       fy="83.643387"
       r="1.9890442"
       gradientUnits="userSpaceOnUse"
       gradientTransform="matrix(1.1618497,0,0,1.1618497,-6.2803529,-13.583647)" />
  </defs>
  <sodipodi:namedview
     id="base"
     pagecolor="#56a9c4"
     bordercolor="#666666"
     borderopacity="1.0"
     inkscape:pageopacity="0"
     inkscape:pageshadow="2"
     inkscape:zoom="1"
     inkscape:cx="951.88237"
     inkscape:cy="904.28203"
     inkscape:document-units="mm"
     inkscape:current-layer="layer1"
     showgrid="false"
     inkscape:window-width="1920"
     inkscape:window-height="1043"
     inkscape:window-x="1600"
     inkscape:window-y="0"
     inkscape:window-maximized="1" />
  <metadata
     id="metadata5">
    <rdf:RDF>
      <cc:Work
         rdf:about="">
        <dc:format>image/svg+xml</dc:format>
        <dc:type
           rdf:resource="http://purl.org/dc/dcmitype/StillImage" />
        <dc:title></dc:title>
      </cc:Work>
    </rdf:RDF>
  </metadata>
  <g
     inkscape:label="Layer 1"
     inkscape:groupmode="layer"
     id="layer1">
    <path
       sodipodi:type="inkscape:offset"
       inkscape:radius="1.6976742"
       inkscape:original="M 509.57031 190.80078 L 509.45312 198.59375 L 512.55859 198.59375 L 512.5 190.80078 L 509.57031 190.80078 z M 459.41406 191.58203 C 458.21615 191.58203 457.12242 191.97266 456.13281 192.75391 C 455.14323 193.53515 454.64844 194.51823 454.64844 195.70312 L 454.64844 216.58203 L 458.18359 216.58203 L 458.18359 205.39062 L 467.05078 205.39062 L 467.05078 202.38281 L 458.18359 202.38281 L 458.18359 196.34766 C 458.18359 195.87891 458.30083 195.48177 458.53516 195.15625 C 458.76951 194.83073 459.14062 194.66797 459.64844 194.66797 L 467.85156 194.66797 L 467.85156 191.58203 L 459.41406 191.58203 z M 410.19531 191.64062 L 410.19531 216.60156 L 420.625 216.60156 C 421.79688 216.60156 422.73438 216.24349 423.4375 215.52734 C 424.14062 214.79818 424.49219 213.85417 424.49219 212.69531 L 424.49219 196.09375 C 424.49219 194.81771 424.03645 193.75651 423.125 192.91016 C 422.21353 192.0638 421.11979 191.64064 419.84375 191.64062 L 410.19531 191.64062 z M 495.74219 191.73828 L 495.74219 216.50391 L 498.80859 216.50391 L 498.80859 215.58594 C 499.65493 216.19792 500.59896 216.50391 501.64062 216.50391 L 503.00781 216.50391 C 504.66146 216.50391 505.98308 215.96354 506.97266 214.88281 C 507.96224 213.80208 508.45703 212.42188 508.45703 210.74219 L 508.45703 203.32031 C 508.45703 201.54948 508.04037 200.14323 507.20703 199.10156 C 506.3737 198.05989 505.10416 197.53906 503.39844 197.53906 L 501.25 197.53906 C 500.46875 197.53906 499.7526 197.73437 499.10156 198.125 L 499.10156 191.73828 L 495.74219 191.73828 z M 413.75 194.66797 L 419.21875 194.66797 C 419.49214 194.65497 419.73303 194.71357 419.94141 194.84375 C 420.6185 195.23438 420.95703 195.86589 420.95703 196.73828 L 420.95703 211.85547 C 420.95703 212.05079 420.94397 212.25261 420.91797 212.46094 C 420.83987 213.16398 420.46875 213.52205 419.80469 213.53516 L 413.75 213.53516 L 413.75 194.66797 z M 519.375 197.46094 C 518.21615 197.46094 517.27212 197.8776 516.54297 198.71094 C 515.8138 199.54427 515.44922 200.54687 515.44922 201.71875 L 515.44922 204.57031 C 515.44922 205.74219 515.83984 206.69922 516.62109 207.44141 C 517.40232 208.18359 518.38541 208.55469 519.57031 208.55469 L 522.79297 208.55469 C 523.78255 208.55469 524.27734 209.06251 524.27734 210.07812 L 524.27734 212.03125 C 524.27734 213.00781 523.78255 213.49609 522.79297 213.49609 L 519.96094 213.49609 C 519.54428 213.49609 519.20572 213.40499 518.94531 213.22266 C 518.69788 213.02734 518.58733 212.70182 518.61328 212.24609 L 515.25391 212.24609 C 515.25391 213.52214 515.61848 214.57032 516.34766 215.39062 C 517.0638 216.21095 518.05989 216.62109 519.33594 216.62109 L 523.63281 216.62109 C 524.81772 216.62109 525.8008 216.19791 526.58203 215.35156 C 527.36328 214.49219 527.75391 213.46354 527.75391 212.26562 L 527.75391 209.64844 C 527.75391 208.48958 527.38933 207.49349 526.66016 206.66016 C 525.94401 205.82682 524.99999 205.41016 523.82812 205.41016 L 520.41016 205.41016 C 519.42058 205.41016 518.92578 204.92187 518.92578 203.94531 C 518.92578 203.63281 518.91272 203.28125 518.88672 202.89062 C 518.78255 201.38029 519.29036 200.61857 520.41016 200.60547 L 522.85156 200.60547 C 523.77596 200.60547 524.22517 200.97005 524.19922 201.69922 L 527.55859 201.69922 C 527.55859 200.46224 527.19402 199.44661 526.46484 198.65234 C 525.73567 197.85807 524.77213 197.46094 523.57422 197.46094 L 519.375 197.46094 z M 431.95508 197.48047 C 431.40821 197.48047 430.89387 197.64974 430.41211 197.98828 C 429.93047 198.32682 429.59844 198.75651 429.41602 199.27734 L 429.41602 197.5 L 425.56836 197.5 L 425.56836 198.63281 C 425.56836 199.0625 425.85481 199.27734 426.42773 199.27734 L 426.44531 216.58203 L 429.78516 216.58203 L 429.78516 203.59375 C 429.78516 203.07292 429.86976 202.61068 430.03906 202.20703 C 430.53385 201.02213 431.60154 200.42969 433.24219 200.42969 L 435.21484 200.44922 L 435.2168 197.48047 L 431.95508 197.48047 z M 490.54883 197.48047 C 490.00196 197.48047 489.48762 197.64974 489.00586 197.98828 C 488.52422 198.32682 488.19219 198.75651 488.00977 199.27734 L 488.00977 197.5 L 484.16211 197.5 L 484.16211 198.63281 C 484.16211 199.0625 484.44856 199.27734 485.02148 199.27734 L 485.03906 216.58203 L 488.37891 216.58203 L 488.37891 203.59375 C 488.37891 203.07292 488.46351 202.61068 488.63281 202.20703 C 489.1276 201.02213 490.19529 200.42969 491.83594 200.42969 L 493.80859 200.44922 L 493.81055 197.48047 L 490.54883 197.48047 z M 474.02344 197.51953 C 472.87759 197.51953 471.93358 197.92969 471.19141 198.75 C 470.44913 199.57031 470.06502 200.57292 470.03906 201.75781 L 473.39844 201.75781 C 473.41154 201.38022 473.52209 201.07422 473.73047 200.83984 C 473.95182 200.59244 474.25781 200.46875 474.64844 200.46875 L 478.20312 200.46875 C 479.25781 200.46875 479.78516 201.01562 479.78516 202.10938 L 479.78516 205.37109 C 479.32942 205.08464 478.84113 204.94141 478.32031 204.94141 L 474.53125 204.94141 C 473.34637 204.94141 472.27215 205.32552 471.30859 206.09375 C 470.34507 206.86198 469.86328 207.81901 469.86328 208.96484 L 469.86328 212.67578 C 469.86328 213.79557 470.34507 214.73958 471.30859 215.50781 C 472.27215 216.27604 473.34637 216.66016 474.53125 216.66016 L 477.73438 216.66016 C 478.41145 216.66016 479.10157 216.38672 479.80469 215.83984 L 479.80469 216.60156 L 483.06641 216.60156 L 483.06641 201.67969 C 483.06641 200.52083 482.70833 199.53776 481.99219 198.73047 C 481.27604 197.92318 480.35805 197.51953 479.23828 197.51953 L 474.02344 197.51953 z M 500.70312 200.42969 L 502.77344 200.42969 C 503.68488 200.42969 504.35547 200.78125 504.78516 201.48438 C 505.00664 201.84895 505.11719 202.54557 505.11719 203.57422 L 505.11719 210.68359 C 505.11719 211.1263 505.09116 211.52995 505.03906 211.89453 C 504.86979 213.05338 504.11457 213.63281 502.77344 213.63281 L 501.09375 213.63281 C 500.92443 213.63281 500.72261 213.59371 500.48828 213.51562 C 499.55121 213.22917 499.08896 212.78646 499.10156 212.1875 L 499.10156 201.77734 C 499.08866 201.58203 499.13426 201.39974 499.23828 201.23047 C 499.5508 200.69661 500.03906 200.42969 500.70312 200.42969 z M 474.76562 207.83203 L 478.08594 207.83203 C 478.61978 207.83203 479.02344 208.0078 479.29688 208.35938 C 479.58333 208.69791 479.72656 209.11458 479.72656 209.60938 L 479.72656 212.03125 C 479.72656 212.52604 479.58333 212.94922 479.29688 213.30078 C 479.02344 213.63932 478.61978 213.80859 478.08594 213.80859 L 474.76562 213.80859 C 474.21879 213.80859 473.82165 213.63932 473.57422 213.30078 C 473.32679 212.94922 473.20313 212.52604 473.20312 212.03125 L 473.20312 209.60938 C 473.20312 209.11458 473.32679 208.69791 473.57422 208.35938 C 473.82163 208.0078 474.21876 207.83203 474.76562 207.83203 z M 439.33594 211.99219 C 438.58074 211.99219 437.99481 212.20052 437.57812 212.61719 C 437.17451 213.03385 436.97266 213.61979 436.97266 214.375 C 436.97266 215.11719 437.17451 215.69661 437.57812 216.11328 C 437.99482 216.51693 438.58074 216.71875 439.33594 216.71875 C 440.09116 216.71875 440.66409 216.51693 441.05469 216.11328 C 441.45834 215.69661 441.66016 215.11068 441.66016 214.35547 C 441.66016 212.77995 440.88542 211.99219 439.33594 211.99219 z M 365.2832 212.625 L 365.2832 269.5918 L 380.09766 269.5918 L 380.09766 245.66602 L 384.53125 245.66602 L 384.53125 269.5918 L 399.34375 269.5918 L 399.34375 212.625 L 384.53125 212.625 L 384.53125 232.99805 L 380.09766 232.99805 L 380.09766 212.625 L 365.2832 212.625 z M 625.55664 212.625 L 625.55664 269.5918 L 640.19531 269.5918 L 640.19531 212.625 L 625.55664 212.625 z M 568.97852 216.73828 C 565.24878 216.73828 562.08035 217.53575 559.47656 219.13086 C 556.8728 220.70251 555.17258 222.49828 554.375 224.51562 C 553.57744 226.53297 553.17969 229.52395 553.17969 233.48828 L 553.17969 246.75195 C 553.17969 251.30272 553.65933 254.82209 554.62109 257.30859 C 555.60632 259.77163 557.27144 261.69608 559.61719 263.08008 C 561.96294 264.44061 565.14306 265.11914 569.1543 265.11914 C 572.2976 265.11914 574.93569 264.6278 577.07031 263.64258 C 579.20499 262.63391 580.9286 261.15596 582.24219 259.20898 C 583.57928 257.23855 584.36503 255.3258 584.59961 253.47266 C 584.85841 251.59605 585.00076 248.7942 585.02344 245.06445 L 572.35547 245.06445 L 572.35547 250.62305 C 572.35547 253.03918 572.18001 254.6809 571.82812 255.54883 C 571.49973 256.41676 570.85434 256.85156 569.89258 256.85156 C 569.07159 256.85156 568.44959 256.44015 568.02734 255.61914 C 567.60512 254.77467 567.39453 253.52096 567.39453 251.85547 L 567.39453 229.82812 C 567.39453 227.78733 567.53496 226.47316 567.81641 225.88672 C 568.09791 225.30028 568.64966 225.00781 569.4707 225.00781 C 570.29162 225.00781 570.85317 225.34707 571.1582 226.02734 C 571.46324 226.68416 571.61719 227.95152 571.61719 229.82812 L 571.61719 235.21094 L 585.02344 235.21094 C 585.02344 230.82438 584.58863 227.43564 583.7207 225.04297 C 582.85277 222.6503 581.10577 220.66736 578.47852 219.0957 C 575.85127 217.52405 572.68482 216.73828 568.97852 216.73828 z M 457.82422 222.05469 C 454.56362 222.05469 451.67793 222.68837 449.16797 223.95508 C 446.65803 225.19833 444.85251 227.00384 443.75 229.37305 C 442.64749 231.7188 442.0957 234.93402 442.0957 239.01562 L 442.0957 252.63281 C 442.0957 256.10453 442.34136 258.75429 442.83398 260.58398 C 443.32658 262.39021 444.20791 264.05534 445.47461 265.58008 C 446.76479 267.08136 448.55859 268.26684 450.85742 269.13477 C 453.15626 270.0027 455.80604 270.43555 458.80859 270.43555 C 461.90498 270.43555 464.47479 270.0027 466.51562 269.13477 C 468.57986 268.24338 470.28009 266.91752 471.61719 265.1582 C 472.95426 263.39889 473.79852 261.74546 474.15039 260.19727 C 474.52572 258.64907 474.71289 256.43215 474.71289 253.54688 L 474.71289 250.09961 L 461.23828 250.09961 L 461.23828 256.25586 C 461.23828 258.57816 461.04916 260.14969 460.67383 260.9707 C 460.32195 261.76826 459.60637 262.16797 458.52734 262.16797 C 457.65949 262.16797 457.07456 261.86185 456.76953 261.25195 C 456.4645 260.64206 456.31055 259.28305 456.31055 257.17188 L 456.31055 247.07227 L 474.71289 247.07227 L 474.71289 240.87891 C 474.71289 236.3516 474.18646 232.84587 473.13086 230.35938 C 472.09872 227.84941 470.27957 225.84308 467.67578 224.3418 C 465.09547 222.81705 461.81202 222.05469 457.82422 222.05469 z M 502.75781 222.05469 C 500.9516 222.05469 499.28455 222.4661 497.75977 223.28711 C 496.23505 224.10812 494.84094 225.35014 493.57422 227.01562 L 493.82031 222.90039 L 479.35742 222.90039 L 479.35742 276.24219 L 493.57422 276.24219 L 493.57422 265.54492 C 494.81746 267.16349 496.18815 268.38406 497.68945 269.20508 C 499.19073 270.02609 500.82076 270.43555 502.58008 270.43555 C 504.78508 270.43555 506.66274 269.90911 508.21094 268.85352 C 509.78262 267.77447 510.81404 266.34332 511.30664 264.56055 C 511.8227 262.75432 512.08203 259.72824 512.08203 255.48242 L 512.08203 235.8125 C 512.08203 232.10621 511.88119 229.47984 511.48242 227.93164 C 511.08363 226.38344 510.0756 225.02249 508.45703 223.84961 C 506.86192 222.65328 504.96281 222.05469 502.75781 222.05469 z M 532.17188 222.05469 C 528.37173 222.05469 525.25206 222.79366 522.8125 224.27148 C 520.37289 225.74931 518.68437 227.70885 517.74609 230.14844 C 516.80779 232.58802 516.33984 235.97676 516.33984 240.31641 L 516.33984 252.2793 C 516.33984 256.24362 516.59722 259.22291 517.11328 261.2168 C 517.62936 263.18723 518.48532 264.8777 519.68164 266.28516 C 520.90145 267.66915 522.60166 268.71229 524.7832 269.41602 C 526.96475 270.09628 529.62818 270.43555 532.77148 270.43555 C 535.5864 270.43555 538.07238 270.03779 540.23047 269.24023 C 542.41204 268.41922 544.19412 267.16355 545.57812 265.47461 C 546.96209 263.76221 547.86684 261.93331 548.28906 259.98633 C 548.71134 258.01589 548.92188 254.93132 548.92188 250.73242 L 548.92188 239.29688 C 548.92188 235.98935 548.68596 233.52677 548.2168 231.9082 C 547.77109 230.28963 546.92683 228.71615 545.68359 227.19141 C 544.44033 225.66667 542.66993 224.43635 540.37109 223.49805 C 538.09574 222.53629 535.36212 222.05469 532.17188 222.05469 z M 604.65625 222.05469 C 600.64501 222.05469 597.38496 222.80536 594.875 224.30664 C 592.36502 225.80792 590.6882 227.54519 589.84375 229.51562 C 589.02274 231.4626 588.61133 234.24105 588.61133 237.85352 L 588.61133 240.98633 L 601.94727 240.98633 L 601.94727 236.09375 C 601.94727 233.48996 602.06425 231.88333 602.29883 231.27344 C 602.53341 230.64008 603.13199 230.32422 604.09375 230.32422 C 604.9382 230.32422 605.5368 230.69858 605.88867 231.44922 C 606.264 232.1764 606.45117 233.75963 606.45117 236.19922 C 606.45117 238.14619 606.28737 239.43696 605.95898 240.07031 C 605.63057 240.70367 603.13093 241.93594 598.46289 243.76562 C 594.09978 245.45458 591.36812 246.93251 590.26562 248.19922 C 589.16311 249.46592 588.61133 251.84662 588.61133 255.3418 L 588.61133 259.17578 C 588.61133 263.89075 589.64471 266.95387 591.70898 268.36133 C 593.79667 269.74532 596.08186 270.43555 598.56836 270.43555 C 600.46843 270.43555 602.10041 270.02609 603.46094 269.20508 C 604.84495 268.36061 605.96996 267.10494 606.83789 265.43945 L 606.83789 269.5918 L 620.66602 269.5918 L 620.66602 246.1582 C 620.66602 238.44067 620.42033 233.34976 619.92773 230.88672 C 619.43514 228.40022 617.96891 226.31199 615.5293 224.62305 C 613.08974 222.91065 609.46504 222.05469 604.65625 222.05469 z M 728.65234 222.05469 C 725.53252 222.05469 722.78916 222.53629 720.41992 223.49805 C 718.07417 224.45981 716.40905 225.83246 715.42383 227.61523 C 714.43863 229.37455 713.94531 232.11791 713.94531 235.84766 C 713.94531 238.4749 714.40354 240.75031 715.31836 242.67383 C 716.23321 244.57389 718.77765 246.69722 722.95312 249.04297 C 727.92614 251.81096 730.68317 253.47608 731.22266 254.03906 C 731.73871 254.60204 731.99609 255.9981 731.99609 258.22656 C 731.99609 259.84513 731.7972 260.91167 731.39844 261.42773 C 730.99967 261.92034 730.29576 262.16797 729.28711 262.16797 C 728.34878 262.16797 727.71513 261.79165 727.38672 261.04102 C 727.08169 260.29037 726.92969 258.66035 726.92969 256.15039 L 726.92969 253.19531 L 714.33203 253.19531 L 714.33203 255.44727 C 714.33203 259.34122 714.81363 262.25031 715.77539 264.17383 C 716.73713 266.09735 718.49583 267.62209 721.05273 268.74805 C 723.63302 269.87401 726.72932 270.43555 730.3418 270.43555 C 733.6024 270.43555 736.38281 269.9208 738.68164 268.88867 C 741.00393 267.83308 742.65733 266.34344 743.64258 264.41992 C 744.62777 262.47294 745.12109 259.59895 745.12109 255.79883 C 745.12109 252.39749 744.47573 249.80621 743.18555 248.02344 C 741.89539 246.24066 739.18514 244.33962 735.05664 242.32227 C 731.96025 240.79753 729.90907 239.6374 728.90039 238.83984 C 727.91517 238.04229 727.31662 237.31501 727.10547 236.6582 C 726.918 235.97793 726.82422 234.92115 726.82422 233.49023 C 726.82422 232.43465 727.0231 231.64887 727.42188 231.13281 C 727.82064 230.59328 728.41924 230.32422 729.2168 230.32422 C 730.20202 230.32422 730.81228 230.6167 731.04688 231.20312 C 731.30476 231.76612 731.43359 233.12706 731.43359 235.28516 L 731.43359 237.81836 L 744.0293 237.81836 L 744.0293 235.10938 C 744.0293 232.76361 743.90047 231.04 743.64258 229.9375 C 743.408 228.83499 742.70414 227.63782 741.53125 226.34766 C 740.38185 225.05749 738.71672 224.02605 736.53516 223.25195 C 734.37705 222.45439 731.74873 222.05469 728.65234 222.05469 z M 642.3418 222.90039 L 650.11719 261.95703 C 650.70362 264.84231 650.99609 266.47234 650.99609 266.84766 C 650.99609 267.62178 650.68019 268.12677 650.04688 268.36133 C 649.4135 268.57243 647.99406 268.67773 645.78906 268.67773 L 645.78906 276.13672 L 654.41016 276.13672 C 658.35102 276.13672 661.21332 275.83255 662.99609 275.22266 C 664.80233 274.63622 666.21009 273.70811 667.21875 272.44141 C 668.22743 271.1747 668.94103 269.56807 669.36328 267.62109 C 669.80896 265.67412 670.34907 262.02605 670.98242 256.67773 L 675.06445 222.90039 L 662.15039 222.90039 L 659.89844 254.39062 L 655.25391 222.90039 L 642.3418 222.90039 z M 700.99609 228.43555 C 699.18986 228.43555 697.52476 228.845 696 229.66602 C 694.47526 230.48703 693.0792 231.731 691.8125 233.39648 L 692.05859 229.2793 L 677.59766 229.2793 L 677.59766 282.62109 L 691.8125 282.62109 L 691.8125 271.92578 C 693.05571 273.54435 694.42838 274.76297 695.92969 275.58398 C 697.43097 276.405 699.06099 276.81641 700.82031 276.81641 C 703.02531 276.81641 704.90298 276.28801 706.45117 275.23242 C 708.02285 274.15338 709.05427 272.72223 709.54688 270.93945 C 710.06292 269.13322 710.32031 266.10715 710.32031 261.86133 L 710.32031 242.19336 C 710.32031 238.48707 710.12142 235.85874 709.72266 234.31055 C 709.32387 232.76235 708.31584 231.40139 706.69727 230.22852 C 705.10218 229.03218 703.2011 228.43555 700.99609 228.43555 z M 458.49219 230.32422 C 459.28989 230.32422 459.81828 230.67518 460.07617 231.37891 C 460.33409 232.08263 460.46289 233.64247 460.46289 236.05859 L 460.46289 239.47266 L 456.31055 239.47266 L 456.31055 236.05859 C 456.31055 233.43135 456.42948 231.82472 456.66406 231.23828 C 456.89862 230.62838 457.50697 230.32422 458.49219 230.32422 z M 495.79102 230.32422 C 496.75273 230.32422 497.33768 230.62838 497.54883 231.23828 C 497.75998 231.84818 497.86523 233.59714 497.86523 236.48242 L 497.86719 256.50195 C 497.86719 258.98845 497.74825 260.55999 497.51367 261.2168 C 497.30257 261.85015 496.74104 262.16797 495.82617 262.16797 C 494.88787 262.16797 494.27754 261.81505 493.99609 261.11133 C 493.71462 260.4076 493.57422 258.64889 493.57422 255.83398 L 493.57422 236.48242 C 493.57422 233.7848 493.70305 232.08263 493.96094 231.37891 C 494.24244 230.67518 494.85271 230.32422 495.79102 230.32422 z M 532.66602 230.32422 C 533.51061 230.32422 534.06047 230.64008 534.31836 231.27344 C 534.57627 231.88333 534.70703 233.38467 534.70703 235.77734 L 534.70703 257.3125 C 534.70703 259.32985 534.56468 260.64206 534.2832 261.25195 C 534.02516 261.86185 533.47533 262.16797 532.63086 262.16797 C 531.80985 262.16797 531.25804 261.83845 530.97656 261.18164 C 530.69509 260.50137 530.55469 259.05852 530.55469 256.85352 L 530.55469 235.77734 C 530.55469 233.38467 530.69509 231.88333 530.97656 231.27344 C 531.25806 230.64008 531.82154 230.32422 532.66602 230.32422 z M 404.6582 231.40625 L 404.6582 262.89844 C 404.6582 266.90968 404.74 269.59454 404.9043 270.95508 C 405.0685 272.29216 405.47798 273.58292 406.13477 274.82617 C 406.81506 276.06942 407.86013 277.06576 409.26758 277.81641 C 410.67502 278.56705 412.44545 278.94336 414.58008 278.94336 C 416.45671 278.94336 418.11011 278.55535 419.54102 277.78125 C 420.99538 276.98369 422.21598 275.80017 423.20117 274.22852 L 422.95508 278.09766 L 437.41602 278.09766 L 437.41602 231.40625 L 423.20117 231.40625 L 423.20117 262.82812 C 423.20117 266.6517 423.09592 268.91541 422.88477 269.61914 C 422.6971 270.32286 422.07513 270.67383 421.01953 270.67383 C 420.03433 270.67383 419.42404 270.33456 419.18945 269.6543 C 418.9783 268.97403 418.87305 266.81561 418.87305 263.17969 L 418.87305 231.40625 L 404.6582 231.40625 z M 764.22656 231.625 C 760.96596 231.625 758.08027 232.25868 755.57031 233.52539 C 753.06035 234.76864 751.25486 236.57415 750.15234 238.94336 C 749.04986 241.28912 748.49805 244.50237 748.49805 248.58398 L 748.49805 262.20117 C 748.49805 265.67289 748.74373 268.32461 749.23633 270.1543 C 749.72893 271.96053 750.61023 273.62565 751.87695 275.15039 C 753.16713 276.65167 754.96093 277.83521 757.25977 278.70312 C 759.5586 279.57106 762.20838 280.00586 765.21094 280.00586 C 768.30733 280.00586 770.87715 279.57106 772.91797 278.70312 C 774.98222 277.81174 776.68246 276.48783 778.01953 274.72852 C 779.35663 272.9692 780.20086 271.31578 780.55273 269.76758 C 780.92804 268.21938 781.11523 266.00246 781.11523 263.11719 L 781.11523 259.66797 L 767.64062 259.66797 L 767.64062 265.82617 C 767.64062 268.14847 767.4515 269.72 767.07617 270.54102 C 766.72435 271.33857 766.00877 271.73633 764.92969 271.73633 C 764.06186 271.73633 763.4769 271.43216 763.17188 270.82227 C 762.86684 270.21237 762.71289 268.85142 762.71289 266.74023 L 762.71289 256.64258 L 781.11523 256.64258 L 781.11523 250.44922 C 781.11523 245.92191 780.58877 242.41423 779.5332 239.92773 C 778.50106 237.41778 776.68193 235.41339 774.07812 233.91211 C 771.49779 232.38737 768.21434 231.625 764.22656 231.625 z M 694.0293 236.70312 C 694.99101 236.70312 695.57791 237.00924 695.78906 237.61914 C 696.00021 238.22904 696.10547 239.97605 696.10547 242.86133 L 696.10547 262.88281 C 696.10547 265.36931 695.98849 266.94084 695.75391 267.59766 C 695.54281 268.23101 694.97933 268.54688 694.06445 268.54688 C 693.12615 268.54688 692.51778 268.19591 692.23633 267.49219 C 691.95485 266.78846 691.8125 265.0278 691.8125 262.21289 L 691.8125 242.86133 C 691.8125 240.16371 691.94133 238.46349 692.19922 237.75977 C 692.48074 237.05604 693.09102 236.70314 694.0293 236.70312 z M 764.89453 239.89258 C 765.69224 239.89258 766.22063 240.24549 766.47852 240.94922 C 766.73643 241.65295 766.86523 243.21278 766.86523 245.62891 L 766.86523 249.04102 L 762.71289 249.04102 L 762.71289 245.62891 C 762.71289 243.00166 762.83182 241.39503 763.06641 240.80859 C 763.30096 240.1987 763.90933 239.89258 764.89453 239.89258 z M 606.45117 247.38867 L 606.45117 256.99609 C 606.45117 259.34185 606.31077 260.79444 606.0293 261.35742 C 605.77126 261.89694 605.19605 262.16797 604.30469 262.16797 C 603.36638 262.16797 602.73271 261.81505 602.4043 261.11133 C 602.09926 260.4076 601.94727 258.84777 601.94727 256.43164 C 601.94727 254.32046 602.12274 252.70213 602.47461 251.57617 C 602.84989 250.45021 604.17577 249.05416 606.45117 247.38867 z "
       style="font-style:normal;font-variant:normal;font-weight:normal;font-stretch:normal;font-size:10.58333302px;line-height:125%;font-family:Uroob;-inkscape-font-specification:Uroob;letter-spacing:0px;word-spacing:0px;fill:#000000;fill-opacity:1;stroke:none;stroke-width:0.99999994px;stroke-linecap:butt;stroke-linejoin:miter;stroke-opacity:1"
       id="path964"
       d="m 509.57031,189.10352 a 1.6978439,1.6978439 0 0 0 -1.69726,1.67187 l -0.10157,6.70313 c -1.17186,-1.01641 -2.66994,-1.63672 -4.37304,-1.63672 H 501.25 c -0.15885,0 -0.29339,0.1105 -0.45117,0.12304 v -4.22656 a 1.6978439,1.6978439 0 0 0 -1.69727,-1.69726 h -3.35937 a 1.6978439,1.6978439 0 0 0 -1.69727,1.69726 v 4.0625 a 1.6978439,1.6978439 0 0 0 -0.23437,-0.0176 h -3.26172 c -0.50069,0 -0.93598,0.28231 -1.40625,0.45508 a 1.6978439,1.6978439 0 0 0 -1.13281,-0.43555 h -3.84766 a 1.6978439,1.6978439 0 0 0 -1.64063,1.26368 c -0.94371,-0.7402 -2.06688,-1.24414 -3.2832,-1.24414 h -5.21484 c -1.55098,0 -3.05801,0.64643 -4.0918,1.78906 -0.92835,1.02594 -1.41553,2.36026 -1.52148,3.75781 a 1.6978439,1.6978439 0 0 0 -1.35938,-0.68359 h -7.16992 v -4.32032 h 7.9707 a 1.6978439,1.6978439 0 0 0 1.69727,-1.69726 v -3.08594 a 1.6978439,1.6978439 0 0 0 -1.69727,-1.69726 h -8.4375 c -1.56697,0 -3.0829,0.54944 -4.33398,1.53711 -1.31722,1.03989 -2.12891,2.62374 -2.12891,4.28124 v 20.87891 a 1.6978439,1.6978439 0 0 0 1.69727,1.69727 h 3.53515 a 1.6978439,1.6978439 0 0 0 1.69727,-1.69727 v -9.49414 h 7.16992 a 1.6978439,1.6978439 0 0 0 1.69727,-1.69727 v -2.5332 a 1.6978439,1.6978439 0 0 0 1.29101,0.59766 h 3.27735 c -1.10323,0.2077 -2.16764,0.59397 -3.06641,1.31054 -1.28519,1.02471 -2.08398,2.57751 -2.08398,4.19922 v 3.71094 c 0,1.60674 0.8061,3.14128 2.08398,4.16016 1.22877,0.97968 2.72946,1.52148 4.28125,1.52148 h 3.20313 c 0.44352,0 0.86552,-0.12221 1.2832,-0.25195 a 1.6978439,1.6978439 0 0 0 0.78711,0.19336 h 3.26172 a 1.6978439,1.6978439 0 0 0 1,-0.32813 1.6978439,1.6978439 0 0 0 0.97265,0.3086 h 3.33985 a 1.6978439,1.6978439 0 0 0 1.69726,-1.69727 v -12.98828 c 0,-0.33699 0.0545,-0.56709 0.12305,-0.73047 a 1.6978439,1.6978439 0 0 0 0,-0.002 c 0.23751,-0.56878 0.40551,-0.73411 1.63476,-0.73438 l 1.95704,0.0195 a 1.6978439,1.6978439 0 0 0 0.2539,-0.0176 v 14.375 a 1.6978439,1.6978439 0 0 0 1.69727,1.69726 h 3.0664 a 1.6978439,1.6978439 0 0 0 0.95899,-0.29687 c 0.60522,0.18189 1.23332,0.29687 1.87304,0.29687 h 1.36719 c 2.02349,0 3.90915,-0.74378 5.2168,-2.17187 1.28541,-1.40381 1.92969,-3.27403 1.92969,-5.28711 v -7.42188 c 0,-1.08376 -0.16591,-2.09404 -0.4668,-3.02929 h 2.87109 a 1.6978439,1.6978439 0 0 0 1.69727,-1.71094 l -0.0586,-7.79297 A 1.6978439,1.6978439 0 0 0 512.5,189.10352 Z m -99.375,0.83984 a 1.6978439,1.6978439 0 0 0 -1.69726,1.69726 v 24.96094 a 1.6978439,1.6978439 0 0 0 1.69726,1.69727 H 420.625 c 1.5177,0 2.98999,-0.52943 4.02344,-1.58203 a 1.6978439,1.6978439 0 0 0 0.0117,-0.0117 c 0.0389,-0.0403 0.0504,-0.0991 0.0879,-0.14063 v 0.0195 a 1.6978439,1.6978439 0 0 0 1.69726,1.69532 h 3.33985 a 1.6978439,1.6978439 0 0 0 1.69726,-1.69727 v -12.98828 c 0,-0.33699 0.0545,-0.56709 0.12305,-0.73047 a 1.6978439,1.6978439 0 0 0 0,-0.002 c 0.23751,-0.56878 0.40551,-0.73411 1.63476,-0.73438 l 1.95704,0.0195 a 1.6978439,1.6978439 0 0 0 1.71484,-1.69531 l 0.002,-2.96875 a 1.6978439,1.6978439 0 0 0 -1.69726,-1.69922 h -3.26172 c -0.50069,0 -0.93598,0.28231 -1.40625,0.45508 a 1.6978439,1.6978439 0 0 0 -1.13281,-0.43555 h -3.28711 c -0.0772,-1.56992 -0.70007,-3.06928 -1.84961,-4.13671 -1.20095,-1.11517 -2.7842,-1.72263 -4.43555,-1.72266 z m 109.17969,5.82031 c -1.56578,0 -3.08671,0.66128 -4.10938,1.83008 -0.98886,1.13013 -1.51367,2.60101 -1.51367,4.125 v 2.85156 c 0,1.54914 0.5945,3.05208 1.69922,4.10157 1.09196,1.03737 2.57978,1.58007 4.11914,1.58007 h 3.00977 v 1.54688 H 520.25 a 1.6978439,1.6978439 0 0 0 -1.63672,-1.25 h -3.35937 a 1.6978439,1.6978439 0 0 0 -1.69727,1.69726 c 0,1.59787 0.5019,3.12094 1.51953,4.26758 1.04474,1.19175 2.62337,1.80469 4.25977,1.80469 h 4.29687 c 1.58912,0 3.12588,-0.65376 4.19727,-1.81445 a 1.6978439,1.6978439 0 0 0 0.008,-0.01 c 1.04536,-1.14989 1.61328,-2.66153 1.61328,-4.22852 v -2.61718 c 0,-1.51343 -0.5276,-2.97518 -1.51172,-4.10156 -1.01452,-1.17579 -2.54039,-1.83399 -4.11133,-1.83399 h -3.21289 c -0.005,-0.29714 -0.0127,-0.5988 -0.0352,-0.93555 a 1.6978439,1.6978439 0 0 0 0,-0.004 c -0.0275,-0.39926 0.007,-0.42287 0.0156,-0.47071 h 2.01758 a 1.6978439,1.6978439 0 0 0 1.58594,1.09375 h 3.35937 a 1.6978439,1.6978439 0 0 0 1.69727,-1.69726 c 0,-1.57055 -0.5149,-3.07761 -1.54102,-4.19531 -1.04238,-1.13545 -2.5675,-1.74024 -4.14062,-1.74024 z m -103.92773,0.60156 h 3.66601 c 0.13189,0.0621 0.14649,-0.008 0.14649,0.37305 v 15.09961 h -3.8125 z m 85.35156,5.76172 c 2.04911,0.33156 1.17908,-0.917 2.53515,0.24219 -0.14372,-0.23554 0.0859,0.30098 0.0859,1.20508 v 7.10937 c 0,0.37391 -0.0225,0.69654 -0.0605,0.96485 -0.0383,0.26217 -0.0543,0.20884 -0.0469,0.20312 0.007,-0.006 -0.11299,0.084 -0.53906,0.084 h -1.67969 c 0.092,0 0.0498,0.008 -0.0684,-0.0312 a 1.6978439,1.6978439 0 0 0 -0.041,-0.0117 c -0.15496,-0.0474 -0.12506,-0.0446 -0.18555,-0.0762 z m -25.75391,0.0391 h 3.04297 v 1.07812 h -3.55664 c -0.16823,0 -0.3235,0.0733 -0.49023,0.0859 a 1.6978439,1.6978439 0 0 0 1.0039,-1.16406 z m -0.13086,7.36328 h 3.09961 c 0.005,0.0132 0.0156,-0.007 0.0156,0.0801 v 2.42187 c 0,0.0678 -0.0153,0.0566 -0.0195,0.0801 h -3.0918 c -0.004,-0.0354 -0.0176,-0.0221 -0.0176,-0.0801 v -2.42187 c 0,-0.0683 0.009,-0.0458 0.0137,-0.0801 z m -35.57812,0.76562 c -4.80777,1.55679 -5.74788,5.77208 -2.97656,7 5.04074,0.69777 -0.0462,4.45856 5.91601,-0.002 1.90174,-5.21336 -0.17965,-8.10464 -2.93945,-6.99805 z m -74.05274,0.63281 a 1.6978439,1.6978439 0 0 0 -1.69726,1.69727 v 56.9668 a 1.6978439,1.6978439 0 0 0 1.69726,1.69726 h 14.81446 a 1.6978439,1.6978439 0 0 0 1.69726,-1.69726 v -22.22852 h 1.03906 v 22.22852 a 1.6978439,1.6978439 0 0 0 1.69727,1.69726 h 14.8125 a 1.6978439,1.6978439 0 0 0 1.69727,-1.69726 V 212.625 a 1.6978439,1.6978439 0 0 0 -1.69727,-1.69727 h -14.8125 a 1.6978439,1.6978439 0 0 0 -1.69727,1.69727 v 18.67578 h -1.03906 V 212.625 a 1.6978439,1.6978439 0 0 0 -1.69726,-1.69727 z m 260.27344,0 a 1.6978439,1.6978439 0 0 0 -1.69726,1.69727 v 56.9668 a 1.6978439,1.6978439 0 0 0 1.69726,1.69726 h 14.63867 a 1.6978439,1.6978439 0 0 0 1.69727,-1.69726 v -40.25782 l 6.56054,32.95508 a 1.6978439,1.6978439 0 0 0 0,0.006 c 0.29176,1.43547 0.50996,2.55696 0.65235,3.34961 0.13245,0.7373 0.17295,1.23911 0.17969,1.11914 -0.22695,0.0419 -1.47498,0.2168 -3.4961,0.2168 a 1.6978439,1.6978439 0 0 0 -1.69726,1.69726 v 7.45899 a 1.6978439,1.6978439 0 0 0 1.69726,1.69726 h 8.6211 c 4.0241,0 6.98172,-0.27153 9.12695,-1.0039 2.05183,-0.66959 3.77714,-1.78408 5.00977,-3.33203 1.20019,-1.50723 2.00721,-3.36927 2.47265,-5.51172 0.4814,-2.10626 1.01351,-5.74437 1.64844,-11.10547 v -0.004 l 3.23242,-26.74414 v 52.48828 a 1.6978439,1.6978439 0 0 0 1.69727,1.69727 h 14.21484 a 1.6978439,1.6978439 0 0 0 1.69727,-1.69727 v -6.68554 c 0.52577,0.40064 1.03943,0.82912 1.60546,1.13867 1.74569,0.95468 3.6811,1.43945 5.70508,1.43945 2.47622,0 4.72971,-0.61195 6.58789,-1.8789 a 1.6978439,1.6978439 0 0 0 0.004,-0.002 c 1.86216,-1.27847 3.17645,-3.09582 3.76953,-5.23828 0.61062,-2.14404 0.83594,-5.22516 0.83594,-9.5332 v -19.66797 c 0,-3.76703 -0.16988,-6.44106 -0.65039,-8.30664 -0.50992,-1.97964 -1.81691,-3.68056 -3.66211,-5.02149 -1.89434,-1.41697 -4.20242,-2.12695 -6.70899,-2.12695 -2.06279,0 -4.02921,0.47968 -5.80078,1.4336 -0.50923,0.2742 -0.96665,0.66804 -1.44336,1.01757 a 1.6978439,1.6978439 0 0 0 -1.69336,-1.60742 h -14.46093 a 1.6978439,1.6978439 0 0 0 -1.49805,0.90039 l 0.65039,-5.3789 a 1.6978439,1.6978439 0 0 0 -1.68555,-1.9004 h -12.91406 a 1.6978439,1.6978439 0 0 0 -1.69336,1.57618 l -1.14453,16.0039 -2.37891,-16.13086 a 1.6978439,1.6978439 0 0 0 -1.67968,-1.44922 H 642.3418 a 1.6978439,1.6978439 0 0 0 -0.44922,0.0625 V 212.625 a 1.6978439,1.6978439 0 0 0 -1.69727,-1.69727 z m -56.57812,4.11329 c -3.96938,0 -7.47186,0.85887 -10.38282,2.64062 -2.811,1.69774 -4.82518,3.74633 -5.79882,6.20898 -0.93755,2.37143 -1.31446,5.51978 -1.31446,9.59766 v 13.26367 c 0,4.67006 0.467,8.35786 1.55469,11.16993 a 1.6978439,1.6978439 0 0 0 0.008,0.0176 c 1.11695,2.79234 3.07286,5.0482 5.70899,6.60352 a 1.6978439,1.6978439 0 0 0 0.0117,0.006 c 2.70988,1.57172 6.18599,2.26758 10.38868,2.26758 3.32021,0 6.20411,-0.51457 8.62695,-1.63282 a 1.6978439,1.6978439 0 0 0 0.0137,-0.006 c 2.393,-1.13072 4.376,-2.83032 5.85156,-5.01562 1.44928,-2.13576 2.35852,-4.29673 2.63477,-6.47266 1.3e-4,-9.3e-4 0.002,-0.003 0.002,-0.004 0.27727,-2.01884 0.41464,-4.85211 0.4375,-8.61133 a 1.6978439,1.6978439 0 0 0 -1.69726,-1.70703 h -12.66797 a 1.6978439,1.6978439 0 0 0 -1.69727,1.69726 v 5.5586 c 0,2.33394 -0.25865,3.92788 -0.40429,4.28711 a 1.6978439,1.6978439 0 0 0 -0.0137,0.0371 c -0.13427,0.35488 0.10244,0.20703 -0.34765,0.20703 -0.2494,0 -0.14703,0.0909 -0.34961,-0.30664 -0.22183,-0.44816 -0.45117,-1.47576 -0.45117,-2.99219 v -22.02735 c 0,-1.96291 0.30716,-3.31393 0.25586,-3.20703 0.002,-0.005 -0.29483,0.084 0.12304,0.084 0.35319,0 0.0657,-0.14519 0.13868,0.0176 a 1.6978439,1.6978439 0 0 0 0.01,0.0195 c 0.0455,0.0981 0.30078,1.30218 0.30078,3.08593 v 5.38282 a 1.6978439,1.6978439 0 0 0 1.69727,1.69726 h 13.40625 a 1.6978439,1.6978439 0 0 0 1.69726,-1.69726 c 0,-4.49875 -0.42312,-8.04124 -1.40429,-10.7461 -1.01443,-2.79651 -3.08421,-5.10176 -5.9668,-6.82617 -2.92903,-1.75218 -6.42485,-2.59765 -10.37109,-2.59765 z m -111.1543,5.3164 c -3.4776,0 -6.64186,0.68258 -9.41406,2.08008 -2.80309,1.38973 -4.93755,3.50751 -6.19922,6.21875 -1.26205,2.68811 -1.8125,6.12749 -1.8125,10.35937 v 13.61719 c 0,3.55181 0.23412,6.30239 0.79687,8.39258 a 1.6978439,1.6978439 0 0 0 0,0.006 c 0.55816,2.04661 1.56508,3.93849 2.97266,5.63281 a 1.6978439,1.6978439 0 0 0 0.0195,0.0234 c 1.50922,1.75616 3.5666,3.08987 6.07031,4.03516 2.52765,0.95431 5.38508,1.41015 8.55078,1.41015 3.25461,0 6.04501,-0.4463 8.3711,-1.43554 a 1.6978439,1.6978439 0 0 0 0.01,-0.004 c 2.31525,-0.99978 4.27132,-2.52365 5.7793,-4.50781 1.43523,-1.88847 2.40631,-3.73663 2.83203,-5.59766 0.43102,-1.78223 0.60938,-4.08639 0.60938,-7.04101 v -3.44727 a 1.6978439,1.6978439 0 0 0 -0.92969,-1.51367 1.6978439,1.6978439 0 0 0 0.92969,-1.51367 v -6.19336 c 0,-4.65436 -0.5168,-8.34695 -1.71485,-11.17383 -1.17717,-2.85663 -3.29652,-5.17108 -6.16211,-6.82617 -2.90908,-1.71747 -6.50729,-2.52149 -10.70898,-2.52149 z m 44.93359,0 c -6.07861,1.04972 -3.75157,-0.16755 -7.24414,2.45313 a 1.6978439,1.6978439 0 0 0 -1.69336,-1.60743 h -14.46289 a 1.6978439,1.6978439 0 0 0 -1.69726,1.69727 v 53.3418 a 1.6978439,1.6978439 0 0 0 1.69726,1.69726 h 14.2168 a 1.6978439,1.6978439 0 0 0 1.69726,-1.69726 v -6.68555 c 0.52503,0.40048 1.03766,0.82922 1.60352,1.13867 1.74667,0.95521 3.68235,1.4375 5.70508,1.4375 2.47521,0 4.72889,-0.60945 6.58789,-1.87695 a 1.6978439,1.6978439 0 0 0 0.004,-0.002 c 1.86215,-1.27848 3.17645,-3.09583 3.76953,-5.23829 0.61034,-2.14298 0.83789,-5.22464 0.83789,-9.5332 V 235.8125 c 0,-3.76762 -0.17225,-6.44072 -0.65235,-8.30469 -0.50992,-1.97964 -1.81691,-3.68055 -3.66211,-5.02148 -1.8931,-1.41603 -4.19947,-2.12891 -6.70703,-2.12891 z m 29.41407,0 c -4.02024,0 -7.46466,0.7827 -10.23829,2.46289 -2.71151,1.64254 -4.69757,3.92652 -5.77148,6.71875 -1.0595,2.7547 -1.51953,6.31565 -1.51953,10.77735 v 11.96289 c 0,4.0378 0.24359,7.10481 0.82812,9.36328 a 1.6978439,1.6978439 0 0 0 0,0.004 c 0.57236,2.18529 1.54601,4.12419 2.91797,5.73829 a 1.6978439,1.6978439 0 0 0 0.0195,0.0234 c 1.45743,1.65359 3.45075,2.84796 5.85352,3.62305 a 1.6978439,1.6978439 0 0 0 0.0156,0.006 c 2.4033,0.7494 5.22869,1.0957 8.49414,1.0957 2.97485,0 5.66331,-0.41989 8.04688,-1.30078 a 1.6978439,1.6978439 0 0 0 0.01,-0.002 c 2.43038,-0.91465 4.48713,-2.35682 6.0625,-4.2793 a 1.6978439,1.6978439 0 0 0 0.008,-0.01 c 1.52806,-1.89069 2.56682,-3.97263 3.04883,-6.19532 a 1.6978439,1.6978439 0 0 0 0.002,-0.004 c 0.47412,-2.21235 0.66992,-5.35373 0.66992,-9.60938 v -11.43554 c 0,-3.3824 -0.21668,-5.93606 -0.76953,-7.84961 -0.51732,-1.87245 -1.48519,-3.65477 -2.84961,-5.32813 -1.45743,-1.7874 -3.48597,-3.17058 -5.97852,-4.18945 -2.53523,-1.06979 -5.49261,-1.57227 -8.8496,-1.57227 z m 72.48437,0 c -4.22304,0 -7.80058,0.78647 -10.65234,2.49219 -2.71927,1.62646 -4.69805,3.61179 -5.72071,5.99805 a 1.6978439,1.6978439 0 0 0 -0.004,0.008 c -0.9668,2.2927 -1.36524,5.25668 -1.36524,8.99805 v 3.13281 a 1.6978439,1.6978439 0 0 0 1.69727,1.69726 h 8.09375 c -3.69052,1.48419 -6.30048,2.76864 -7.7207,4.40039 -1.60994,1.8497 -2.07032,4.58396 -2.07032,8.25782 v 3.83398 c 0,4.96302 1.04427,8.68314 3.83789,10.58789 a 1.6978439,1.6978439 0 0 0 0.0195,0.0117 c 2.34656,1.5556 4.99621,2.35742 7.79688,2.35742 2.14397,0 4.1086,-0.47232 5.76953,-1.47461 a 1.6978439,1.6978439 0 0 0 0.008,-0.004 c 0.30925,-0.18869 0.54763,-0.47725 0.83399,-0.69922 a 1.6978439,1.6978439 0 0 0 1.6582,1.33398 h 13.82813 a 1.6978439,1.6978439 0 0 0 1.69726,-1.69726 v -23.4336 c 0,-7.75356 -0.21195,-12.80579 -0.77148,-15.60351 -0.58203,-2.93414 -2.37773,-5.44109 -5.08789,-7.32031 -2.86905,-2.01387 -6.83741,-2.87696 -11.84766,-2.87696 z m 123.99609,0 c -3.29453,0 -6.26168,0.50911 -8.87109,1.56836 a 1.6978439,1.6978439 0 0 0 -0.006,0.002 c -2.60697,1.06887 -4.63508,2.69575 -5.83398,4.86133 -1.2333,2.20462 -1.69336,5.18119 -1.69336,9.0586 0,2.82464 0.49369,5.36078 1.53711,7.55468 a 1.6978439,1.6978439 0 0 0 0.004,0.008 c 1.23415,2.5632 4.03193,4.69751 8.33203,7.11328 a 1.6978439,1.6978439 0 0 0 0.006,0.002 c 0.73079,0.40676 1.06177,0.61434 1.69532,0.97266 h -9.49024 a 1.6978439,1.6978439 0 0 0 -1.69726,1.69726 v 2.25196 c 0,4.03392 0.45647,7.15318 1.62304,9.48632 1.17148,2.34301 3.29986,4.12913 6.11133,5.36719 a 1.6978439,1.6978439 0 0 0 0.004,0.004 c 2.84694,1.24232 6.18034,1.82812 9.96875,1.82812 3.43927,0 6.46211,-0.54006 9.03515,-1.69531 a 1.6978439,1.6978439 0 0 0 0.008,-0.004 c 2.59368,-1.17895 4.59508,-2.94733 5.76953,-5.24023 a 1.6978439,1.6978439 0 0 0 0.004,-0.008 c 1.15886,-2.2902 1.62121,-5.32571 1.64258,-9.14453 v 6.16015 c 0,3.55181 0.23407,6.30407 0.79688,8.39453 a 1.6978439,1.6978439 0 0 0 0,0.006 c 0.55815,2.0466 1.56504,3.93848 2.97265,5.63282 a 1.6978439,1.6978439 0 0 0 0.0195,0.0234 c 1.50969,1.75671 3.56737,3.08824 6.07032,4.03321 2.52685,0.95403 5.38432,1.4121 8.55078,1.4121 3.25531,0 6.04585,-0.44859 8.37109,-1.4375 a 1.6978439,1.6978439 0 0 0 0.01,-0.004 c 2.31443,-0.99942 4.27097,-2.52121 5.77929,-4.50586 1.43527,-1.88849 2.40632,-3.73664 2.83203,-5.59766 0.43099,-1.7822 0.60938,-4.08638 0.60938,-7.04101 v -3.44922 a 1.6978439,1.6978439 0 0 0 -0.92773,-1.51367 1.6978439,1.6978439 0 0 0 0.92773,-1.51172 v -6.19336 c 0,-4.65436 -0.51671,-8.34862 -1.71484,-11.17578 -1.17729,-2.85688 -3.29705,-5.16944 -6.16211,-6.82422 -2.9091,-1.71745 -6.50732,-2.52149 -10.70899,-2.52149 -3.47759,0 -6.64185,0.68258 -9.41406,2.08008 -2.80311,1.38974 -4.93754,3.50753 -6.19922,6.21875 -1.26185,2.68777 -1.8125,6.12552 -1.8125,10.35742 v 7.05274 c -0.0217,-3.53508 -0.67584,-6.4477 -2.24023,-8.60938 -1.61556,-2.23242 -4.51319,-4.15597 -8.75391,-6.22851 l -0.004,-0.002 c -1.18971,-0.58594 -1.41396,-0.80793 -2.27929,-1.28126 h 10.50586 a 1.6978439,1.6978439 0 0 0 1.69726,-1.69726 v -2.70898 c 0,-2.4003 -0.11329,-4.18014 -0.42968,-5.54102 -0.32806,-1.5227 -1.21246,-2.93258 -2.49805,-4.34961 l -0.004,-0.004 c -1.38778,-1.55603 -3.31063,-2.71402 -5.67187,-3.55468 l -0.006,-0.002 c -2.40432,-0.88759 -5.22483,-1.30078 -8.46485,-1.30078 z m -323.99414,9.35156 a 1.6978439,1.6978439 0 0 0 -1.69726,1.69727 v 31.49219 c 0,4.03432 0.0697,6.70189 0.25781,8.25976 a 1.6978439,1.6978439 0 0 0 0,0.004 c 0.18971,1.5448 0.66671,3.04235 1.41406,4.45703 a 1.6978439,1.6978439 0 0 0 0.0117,0.0215 c 0.8484,1.55048 2.17429,2.79386 3.82422,3.67383 1.72117,0.91796 3.77718,1.32618 6.11133,1.32617 2.11063,0 4.06606,-0.44368 5.76953,-1.36523 a 1.6978439,1.6978439 0 0 0 0.008,-0.006 c 0.35103,-0.1925 0.6376,-0.48443 0.96485,-0.71484 a 1.6978439,1.6978439 0 0 0 1.63281,1.24023 h 14.46094 a 1.6978439,1.6978439 0 0 0 1.69726,-1.69726 v -46.69141 a 1.6978439,1.6978439 0 0 0 -1.69726,-1.69727 h -14.21485 a 1.6978439,1.6978439 0 0 0 -1.69726,1.69727 v 31.42187 c 0,1.89622 -0.0275,3.3989 -0.0781,4.48633 -0.0456,0.97865 -0.14011,1.53724 -0.15039,1.63477 -0.0591,0.0144 -0.0499,0.0273 -0.25586,0.0273 -0.18335,0 -0.1782,-0.0126 -0.22851,-0.0254 -0.0103,-0.10051 -0.098,-0.59568 -0.14258,-1.50781 -0.0504,-1.03269 -0.0781,-2.46209 -0.0781,-4.26367 v -31.77344 a 1.6978439,1.6978439 0 0 0 -1.69726,-1.69727 z m 127.86914,2.25391 c -0.25682,-0.008 0.2883,-0.0652 0.23438,0.0254 -0.0102,-0.01 0.10084,0.37501 0.15625,1.01563 0.0583,0.67385 0.0918,1.60802 0.0918,2.77343 v 21.53516 c 0,1.91518 -0.27229,3.19382 -0.26368,3.19141 -0.0244,-0.0135 0.005,-0.0332 -0.11523,-0.0332 -0.34492,0 -0.082,0.11456 -0.0879,0.041 -0.0359,-0.0965 -0.29102,-1.53773 -0.29102,-3.6582 v -21.07618 c 0,-1.16313 0.0352,-2.09447 0.0977,-2.76172 0.0625,-0.66724 0.20432,-1.11002 0.16797,-1.03124 a 1.6978439,1.6978439 0 0 0 0.01,-0.0215 z m -36.97656,0.0469 c 0.0801,0.004 0.36133,0.0234 0.42188,0.0293 0.0168,0.12104 0.079,0.40518 0.11914,1.07032 0.0493,0.81806 0.0762,1.95104 0.0762,3.37304 l 0.002,20.01953 c 0,2.3246 -0.21782,3.80186 -0.24414,3.96094 -0.0479,0.007 -0.005,0.008 -0.0996,0.008 -0.5126,0 -0.21402,0.10948 -0.2539,0.01 0.004,0.0105 -0.13662,-0.54378 -0.20118,-1.35156 -0.0645,-0.80779 -0.0996,-1.9157 -0.0996,-3.29493 v -19.35156 c 0,-2.61611 0.25797,-4.39172 0.2793,-4.47265 z m -37.06445,0.0117 c 0.40793,2.27557 0.2965,7.06873 0.27929,5.75391 h -0.75781 v -1.7168 c 0,-1.288 0.0299,-2.31459 0.084,-3.05078 0.0454,-0.61752 0.11873,-0.88815 0.125,-0.95508 0.0616,-0.0146 0.0756,-0.0303 0.26953,-0.0312 z m 145.60742,0 c 0.94766,6.13975 1.48869,-0.1693 0.37109,7.13477 -0.0349,0.033 -0.0389,0.0478 -0.0937,0.084 -0.14521,0.0958 -0.47031,0.26094 -0.72656,0.40039 v -3.54687 c 0,-1.27647 0.0303,-2.29817 0.084,-3.03516 0.0462,-0.63415 0.12305,-0.93999 0.13281,-1.01171 0.0525,-0.0128 0.0505,-0.0254 0.23242,-0.0254 z m 125.12305,0 c 0.21867,0 0.24675,0.0197 0.31054,0.0352 0.006,0.049 0.0719,0.25101 0.11914,0.75 0.0565,0.59647 0.0898,1.43325 0.0898,2.47852 v 1.97656 c -0.54008,-0.50948 -0.96209,-1.00449 -0.99805,-1.10547 -0.1046,-0.40022 -0.2168,-1.33462 -0.2168,-2.66602 0,-0.84234 0.1882,-1.24792 0.24414,-1.32031 a 1.6978439,1.6978439 0 0 0 0.0215,-0.0273 c 0.0764,-0.10341 0.0139,-0.1211 0.42969,-0.1211 z m -35.42774,6.36914 c 0.0801,0.003 0.36263,0.0215 0.42383,0.0273 0.0167,0.12011 0.079,0.40463 0.11914,1.07031 0.0493,0.81754 0.0762,1.95105 0.0762,3.37305 v 20.02148 c 0,2.32431 -0.21663,3.8008 -0.24218,3.95899 -0.0485,0.007 -0.006,0.008 -0.10157,0.008 -0.51495,0 -0.21146,0.11295 -0.25195,0.0117 0.004,0.01 -0.13618,-0.54537 -0.20117,-1.35352 -0.065,-0.80814 -0.10156,-1.91608 -0.10156,-3.29492 v -19.35156 c 0,-2.61611 0.25763,-4.38889 0.27929,-4.47071 z m 71.09961,3.19922 c 0.40792,2.25965 0.29616,7.1203 0.2793,5.75391 h -0.75781 v -1.71484 c 0,-1.28801 0.0299,-2.3146 0.084,-3.05079 0.0455,-0.61876 0.11912,-0.89157 0.125,-0.95703 0.061,-0.0146 0.0755,-0.0303 0.26953,-0.0312 z m -306.88086,7.17969 h 2.17774 a 1.6978439,1.6978439 0 0 0 -0.64453,1.33008 v 6.15625 c 0,2.23013 -0.28772,3.73766 -0.41211,4.00976 a 1.6978439,1.6978439 0 0 0 -0.008,0.0195 c -0.0933,0.21154 0.066,0.18554 -0.59375,0.18554 -0.46863,0 -0.22193,0.0581 -0.24023,0.0215 0.0441,0.0881 -0.2793,-1.29168 -0.2793,-3.32031 z m 146.7461,2.45117 v 5.77539 c 0,1.13901 -0.0358,2.04594 -0.0977,2.68555 -0.0543,0.56187 -0.14482,0.81307 -0.12695,0.80469 -0.0344,-0.007 -0.0373,-0.0156 -0.22461,-0.0156 -0.4903,0 -0.3039,0.0452 -0.34571,-0.0742 -0.0278,-0.0821 -0.31445,-1.64282 -0.31445,-3.96484 0,-2.00716 0.18957,-3.48852 0.44922,-4.32812 0.0491,-0.14202 0.36018,-0.52163 0.66016,-0.88282 z m 123.87304,3.09375 c 0.61368,0.41654 1.43003,0.97369 1.34766,0.88477 -0.10401,-0.11232 0.0608,0.0898 0.1582,0.61719 0.0996,0.5392 0.16602,1.36128 0.16602,2.41015 0,1.45942 -0.35161,2.2689 -0.24024,2.13477 0.0328,-0.0394 -0.0586,0.10937 -0.77148,0.10937 -0.46295,0 -0.26879,0.0672 -0.33008,-0.10547 -0.0597,-0.16399 -0.33008,-1.79468 -0.33008,-4.21484 z m 35.78321,4.02539 h 2.17578 a 1.6978439,1.6978439 0 0 0 -0.64258,1.32813 v 6.1582 c 0,2.23013 -0.2877,3.73764 -0.41211,4.00977 a 1.6978439,1.6978439 0 0 0 -0.008,0.0195 c -0.0929,0.21051 0.0681,0.18359 -0.59375,0.18359 -0.47115,0 -0.22262,0.0587 -0.24024,0.0234 0.0447,0.0894 -0.27929,-1.29361 -0.27929,-3.32227 z"
       transform="scale(0.26458333)"
       inkscape:export-filename="/home/mauve/dev/pyweek34/images/logo.png"
       inkscape:export-xdpi="119.99239"
       inkscape:export-ydpi="119.99239" />
    <g
       id="g838"
       inkscape:export-filename="/home/mauve/dev/pyweek34/images/laser.png"
       inkscape:export-xdpi="88.404999"
       inkscape:export-ydpi="88.404999">
      <path
         sodipodi:nodetypes="sssssssss"
         inkscape:connector-curvature="0"
         id="rect815"
         d="m 33.611273,82.761795 5.381188,-0.264583 c 0.50969,-0.02506 0.921128,0.410823 0.921128,0.921127 v 0.377924 c 0,0.510304 -0.411438,0.946188 -0.921128,0.921127 l -5.381188,-0.264583 c -0.388207,-0.01909 -0.701582,-0.312906 -0.701582,-0.701582 v -0.287848 c 0,-0.388676 0.313375,-0.682495 0.701582,-0.701582 z"
         style="color:#000000;clip-rule:nonzero;display:inline;overflow:visible;visibility:visible;opacity:1;isolation:auto;mix-blend-mode:normal;color-interpolation:sRGB;color-interpolation-filters:linearRGB;solid-color:#000000;solid-opacity:1;fill:url(#linearGradient824);fill-opacity:1;fill-rule:evenodd;stroke:none;stroke-width:0.26458332px;stroke-linecap:butt;stroke-linejoin:miter;stroke-miterlimit:4;stroke-dasharray:none;stroke-dashoffset:0;stroke-opacity:1;color-rendering:auto;image-rendering:auto;shape-rendering:auto;text-rendering:auto;enable-background:accumulate" />
      <circle
         r="2.3109703"
         cy="83.597397"
         cx="38.803608"
         id="path826"
         style="color:#000000;clip-rule:nonzero;display:inline;overflow:visible;visibility:visible;opacity:1;isolation:auto;mix-blend-mode:normal;color-interpolation:sRGB;color-interpolation-filters:linearRGB;solid-color:#000000;solid-opacity:1;vector-effect:none;fill:url(#radialGradient834);fill-opacity:1;fill-rule:nonzero;stroke:none;stroke-width:0.26458332;stroke-linecap:butt;stroke-linejoin:miter;stroke-miterlimit:4;stroke-dasharray:none;stroke-dashoffset:0;stroke-opacity:1;marker:none;color-rendering:auto;image-rendering:auto;shape-rendering:auto;text-rendering:auto;enable-background:accumulate" />
    </g>
    <g
       id="g918"
       inkscape:export-filename="/home/mauve/dev/pyweek34/images/logo.png"
       inkscape:export-xdpi="119.99239"
       inkscape:export-ydpi="119.99239">
      <text
         id="text861"
         y="57.308983"
         x="108.02975"
         style="font-style:normal;font-weight:normal;font-size:10.58333302px;line-height:125%;font-family:Uroob;letter-spacing:0px;word-spacing:0px;fill:#ffffff;fill-opacity:1;stroke:none;stroke-width:0.26458332px;stroke-linecap:butt;stroke-linejoin:miter;stroke-opacity:1;-inkscape-font-specification:Uroob;font-stretch:normal;font-variant:normal;"
         xml:space="preserve"><tspan
           style="stroke-width:0.26458332px;-inkscape-font-specification:Uroob;font-family:Uroob;font-weight:normal;font-style:normal;font-stretch:normal;font-variant:normal;fill:#ffffff;"
           y="57.308983"
           x="108.02975"
           id="tspan859"
           sodipodi:role="line">Dr. Farb's</tspan></text>
      <path
         d="m 105.65988,56.257093 v 15.072425 h -3.91939 v -6.330605 h -1.17302 v 6.330605 H 96.648078 V 56.257093 h 3.919392 v 5.390323 h 1.17302 v -5.390323 z"
         style="font-style:normal;font-variant:normal;font-weight:normal;font-stretch:normal;font-size:14.67855453px;line-height:125%;font-family:Impact;-inkscape-font-specification:Impact;letter-spacing:0px;word-spacing:0px;fill:#d40000;fill-opacity:1;stroke:none;stroke-width:0.26458332px;stroke-linecap:butt;stroke-linejoin:miter;stroke-opacity:1"
         id="path867"
         inkscape:connector-curvature="0" />
      <path
         d="m 115.73299,61.226149 v 12.353989 h -3.82629 l 0.0652,-1.024069 q -0.391,0.623752 -0.9682,0.940282 -0.56789,0.30722 -1.31268,0.30722 -0.84718,0 -1.40576,-0.297911 -0.55858,-0.297911 -0.82857,-0.791326 -0.26066,-0.493414 -0.32583,-1.024067 -0.0652,-0.539965 -0.0652,-2.131925 v -8.332193 h 3.76112 v 8.40667 q 0,1.443006 0.0838,1.712988 0.0931,0.269981 0.4841,0.269981 0.41894,0 0.49342,-0.27929 0.0838,-0.279292 0.0838,-1.796775 v -8.313574 z"
         style="font-style:normal;font-variant:normal;font-weight:normal;font-stretch:normal;font-size:14.67855453px;line-height:125%;font-family:Impact;-inkscape-font-specification:Impact;letter-spacing:0px;word-spacing:0px;fill:#7137c8;fill-opacity:1;stroke:none;stroke-width:0.26458332px;stroke-linecap:butt;stroke-linejoin:miter;stroke-opacity:1"
         id="path869"
         inkscape:connector-curvature="0" />
      <path
         d="m 125.60129,65.371302 h -4.86898 v 2.671887 q 0,0.837875 0.12106,1.079927 0.12106,0.242052 0.46549,0.242052 0.42824,0 0.56789,-0.31653 0.14896,-0.32584 0.14896,-1.247502 v -1.629199 h 3.56562 v 0.912352 q 0,1.145094 -0.14896,1.759536 -0.13965,0.614441 -0.6703,1.312669 -0.53066,0.698229 -1.3499,1.051997 -0.80996,0.34446 -2.03884,0.34446 -1.19164,0 -2.10399,-0.34446 -0.91235,-0.344458 -1.42439,-0.94028 -0.50272,-0.605132 -0.69822,-1.321979 -0.19551,-0.726158 -0.19551,-2.103996 v -3.602859 q 0,-1.619889 0.43756,-2.550861 0.43756,-0.94028 1.43369,-1.433695 0.99614,-0.502725 2.29019,-0.502725 1.58266,0 2.60672,0.605132 1.03338,0.595822 1.44301,1.591961 0.41894,0.986829 0.41894,2.783603 z m -3.77043,-2.010898 v -0.903043 q 0,-0.9589 -0.10236,-1.238192 -0.10235,-0.279291 -0.41894,-0.279291 -0.39101,0 -0.4841,0.242053 -0.0931,0.232743 -0.0931,1.27543 v 0.903043 z"
         style="font-style:normal;font-variant:normal;font-weight:normal;font-stretch:normal;font-size:14.67855453px;line-height:125%;font-family:Impact;-inkscape-font-specification:Impact;letter-spacing:0px;word-spacing:0px;fill:#d4aa00;fill-opacity:1;stroke:none;stroke-width:0.26458332px;stroke-linecap:butt;stroke-linejoin:miter;stroke-opacity:1"
         id="path871"
         inkscape:connector-curvature="0" />
      <path
         d="m 130.65646,58.975529 -0.0652,1.089237 q 0.50273,-0.66099 1.10785,-0.98683 0.60515,-0.32584 1.32199,-0.32584 0.87511,0 1.50817,0.474795 0.64237,0.465486 0.80064,1.079928 0.15826,0.61444 0.15826,2.085374 v 5.204129 q 0,1.685059 -0.20481,2.401907 -0.1955,0.707538 -0.81926,1.135784 -0.61444,0.418938 -1.48955,0.418938 -0.69823,0 -1.29405,-0.32584 -0.59583,-0.32584 -1.08924,-0.96821 v 2.830153 h -3.76111 V 58.975529 Z m 1.07062,3.593549 q 0,-1.145095 -0.0838,-1.387147 -0.0838,-0.242053 -0.46548,-0.242053 -0.37239,0 -0.48411,0.279291 -0.10235,0.279292 -0.10235,1.349909 v 5.120342 q 0,1.117166 0.11171,1.396458 0.1117,0.27929 0.48409,0.27929 0.36309,0 0.44687,-0.251362 0.0931,-0.260672 0.0931,-1.247501 z"
         style="font-style:normal;font-variant:normal;font-weight:normal;font-stretch:normal;font-size:14.67855453px;line-height:125%;font-family:Impact;-inkscape-font-specification:Impact;letter-spacing:0px;word-spacing:0px;fill:#2c2ca0;fill-opacity:1;stroke:none;stroke-width:0.26458332px;stroke-linecap:butt;stroke-linejoin:miter;stroke-opacity:1"
         id="path873"
         inkscape:connector-curvature="0" />
      <path
         d="m 145.23548,63.313856 v 3.025656 q 0,1.666438 -0.16759,2.448454 -0.16757,0.772707 -0.71683,1.452315 -0.54928,0.6703 -1.41509,0.996139 -0.85649,0.316531 -1.97366,0.316531 -1.2475,0 -2.1133,-0.269981 -0.8658,-0.279292 -1.34991,-0.828565 -0.47479,-0.558583 -0.67961,-1.340599 -0.20481,-0.791325 -0.20481,-2.364666 v -3.165303 q 0,-1.722298 0.37239,-2.690507 0.37238,-0.96821 1.3406,-1.554722 0.9682,-0.586512 2.47638,-0.586512 1.26613,0 2.16916,0.381698 0.91235,0.372389 1.40577,0.97752 0.49341,0.605131 0.6703,1.247501 0.1862,0.64237 0.1862,1.955041 z m -3.76113,-0.930972 q 0,-0.949591 -0.10236,-1.191643 -0.10235,-0.251363 -0.43755,-0.251363 -0.33515,0 -0.44687,0.251363 -0.11171,0.242052 -0.11171,1.191643 v 5.576518 q 0,0.875112 0.11171,1.145094 0.11171,0.260672 0.43755,0.260672 0.33515,0 0.43756,-0.242052 0.11171,-0.242052 0.11171,-1.042688 z"
         style="font-style:normal;font-variant:normal;font-weight:normal;font-stretch:normal;font-size:14.67855453px;line-height:125%;font-family:Impact;-inkscape-font-specification:Impact;letter-spacing:0px;word-spacing:0px;fill:#447821;fill-opacity:1;stroke:none;stroke-width:0.26458332px;stroke-linecap:butt;stroke-linejoin:miter;stroke-opacity:1"
         id="path875"
         inkscape:connector-curvature="0" />
      <path
         d="m 154.78724,62.233059 h -3.547 v -1.424387 q 0,-0.744777 -0.12106,-1.005449 -0.12106,-0.269982 -0.44686,-0.269982 -0.32585,0 -0.43757,0.232743 -0.1117,0.232744 -0.1117,1.042688 v 5.82788 q 0,0.66099 0.16757,0.996139 0.16758,0.32584 0.49341,0.32584 0.3817,0 0.51203,-0.344459 0.13965,-0.344459 0.13965,-1.30336 v -1.470935 h 3.35151 q -0.009,1.480245 -0.11171,2.225022 -0.0931,0.735467 -0.62376,1.517483 -0.52133,0.772707 -1.36853,1.173024 -0.84718,0.391008 -2.09468,0.391008 -1.59196,0 -2.52293,-0.539963 -0.93097,-0.549274 -1.32198,-1.526793 -0.3817,-0.98683 -0.3817,-2.792914 v -3.509762 q 0,-1.573342 0.31653,-2.373976 0.31654,-0.800636 1.34991,-1.424386 1.03338,-0.633061 2.51362,-0.633061 1.47094,0 2.51363,0.62375 1.04269,0.623752 1.38715,1.573343 0.34446,0.949591 0.34446,2.690507 z"
         style="font-style:normal;font-variant:normal;font-weight:normal;font-stretch:normal;font-size:14.67855453px;line-height:125%;font-family:Impact;-inkscape-font-specification:Impact;letter-spacing:0px;word-spacing:0px;fill:#d45500;fill-opacity:1;stroke:none;stroke-width:0.26458332px;stroke-linecap:butt;stroke-linejoin:miter;stroke-opacity:1"
         id="path877"
         inkscape:connector-curvature="0" />
      <path
         d="m 159.26521,63.760721 h -3.52838 v -0.828564 q 0,-1.433696 0.32584,-2.206402 0.33514,-0.782016 1.33129,-1.377838 0.99614,-0.595821 2.5881,-0.595821 1.90849,0 2.87669,0.679609 0.96822,0.6703 1.16372,1.657129 0.1955,0.977519 0.1955,4.040415 v 6.200269 h -3.65871 v -1.098546 q -0.34446,0.66099 -0.89374,0.996139 -0.53996,0.32584 -1.29405,0.32584 -0.98683,0 -1.81538,-0.549273 -0.81926,-0.558583 -0.81926,-2.429835 v -1.014759 q 0,-1.387147 0.43756,-1.889871 0.43755,-0.502725 2.16916,-1.173024 1.85263,-0.726158 1.98297,-0.97752 0.13033,-0.251363 0.13033,-1.024069 0,-0.96821 -0.14896,-1.256811 -0.13965,-0.297911 -0.47479,-0.297911 -0.3817,0 -0.4748,0.251363 -0.0931,0.242052 -0.0931,1.275431 z m 1.19164,1.694368 q -0.90305,0.66099 -1.05199,1.107856 -0.13965,0.446866 -0.13965,1.284741 0,0.9589 0.12106,1.238192 0.13034,0.27929 0.50273,0.27929 0.35376,0 0.45617,-0.214123 0.11171,-0.223433 0.11171,-1.154404 z"
         style="font-style:normal;font-variant:normal;font-weight:normal;font-stretch:normal;font-size:14.67855453px;line-height:125%;font-family:Impact;-inkscape-font-specification:Impact;letter-spacing:0px;word-spacing:0px;fill:#d4aa00;fill-opacity:1;stroke:none;stroke-width:0.26458332px;stroke-linecap:butt;stroke-linejoin:miter;stroke-opacity:1"
         id="path879"
         inkscape:connector-curvature="0" />
      <path
         d="m 169.38486,56.257093 v 15.072425 h -3.87284 V 56.257093 Z"
         style="font-style:normal;font-variant:normal;font-weight:normal;font-stretch:normal;font-size:14.67855453px;line-height:125%;font-family:Impact;-inkscape-font-specification:Impact;letter-spacing:0px;word-spacing:0px;fill:#447821;fill-opacity:1;stroke:none;stroke-width:0.26458332px;stroke-linecap:butt;stroke-linejoin:miter;stroke-opacity:1"
         id="path881"
         inkscape:connector-curvature="0" />
      <path
         d="m 178.61079,58.975529 -1.07993,8.937324 q -0.25136,2.122614 -0.42824,2.895321 -0.16758,0.772706 -0.5679,1.27543 -0.40031,0.502725 -1.11716,0.735468 -0.70754,0.242053 -2.27157,0.242053 h -2.28088 v -1.97366 q 0.87511,0 1.12648,-0.08378 0.25135,-0.09309 0.25135,-0.400319 0,-0.148955 -0.23274,-1.294049 l -2.05744,-10.333781 h 3.41666 l 1.22888,8.332192 0.59583,-8.332192 z"
         style="font-style:normal;font-variant:normal;font-weight:normal;font-stretch:normal;font-size:14.67855453px;line-height:125%;font-family:Impact;-inkscape-font-specification:Impact;letter-spacing:0px;word-spacing:0px;fill:#d40000;fill-opacity:1;stroke:none;stroke-width:0.26458332px;stroke-linecap:butt;stroke-linejoin:miter;stroke-opacity:1"
         id="path883"
         inkscape:connector-curvature="0" />
      <path
         d="m 183.10738,60.663494 -0.0652,1.089237 q 0.50272,-0.66099 1.10785,-0.98683 0.60514,-0.32584 1.32199,-0.32584 0.87511,0 1.50816,0.474795 0.64237,0.465486 0.80064,1.079928 0.15826,0.61444 0.15826,2.085374 v 5.204129 q 0,1.685059 -0.20481,2.401907 -0.1955,0.707538 -0.81926,1.135784 -0.61444,0.418938 -1.48955,0.418938 -0.69823,0 -1.29405,-0.32584 -0.59583,-0.32584 -1.08923,-0.96821 v 2.830153 h -3.76112 V 60.663494 Z m 1.07063,3.593549 q 0,-1.145095 -0.0838,-1.387147 -0.0838,-0.242053 -0.46548,-0.242053 -0.37238,0 -0.48411,0.279291 -0.10235,0.279292 -0.10235,1.349909 v 5.120342 q 0,1.117166 0.11171,1.396458 0.1117,0.27929 0.48409,0.27929 0.36309,0 0.44687,-0.251362 0.0931,-0.260672 0.0931,-1.247501 z"
         style="font-style:normal;font-variant:normal;font-weight:normal;font-stretch:normal;font-size:14.67855453px;line-height:125%;font-family:Impact;-inkscape-font-specification:Impact;letter-spacing:0px;word-spacing:0px;fill:#7137c8;fill-opacity:1;stroke:none;stroke-width:0.26458332px;stroke-linecap:butt;stroke-linejoin:miter;stroke-opacity:1"
         id="path885"
         inkscape:connector-curvature="0" />
      <path
         d="m 196.85783,62.922847 h -3.33288 v -0.670298 q 0,-0.856495 -0.10235,-1.079928 -0.0931,-0.232743 -0.48411,-0.232743 -0.31653,0 -0.47479,0.214125 -0.15826,0.204812 -0.15826,0.623749 0,0.567893 0.0744,0.837875 0.0838,0.260672 0.47481,0.577202 0.40032,0.31653 1.6292,0.921661 1.6385,0.800636 2.15053,1.508174 0.51204,0.707539 0.51204,2.057447 0,1.508172 -0.391,2.280879 -0.39102,0.763397 -1.31268,1.182334 -0.91235,0.409627 -2.2064,0.409627 -1.4337,0 -2.45775,-0.446866 -1.01477,-0.446866 -1.39646,-1.210263 -0.3817,-0.763396 -0.3817,-2.308809 v -0.595822 h 3.33287 v 0.782016 q 0,0.99614 0.12106,1.294051 0.13034,0.29791 0.50274,0.29791 0.40031,0 0.55857,-0.195503 0.15826,-0.204814 0.15826,-0.847184 0,-0.884423 -0.20481,-1.107856 -0.21411,-0.223434 -2.18777,-1.32198 -1.65714,-0.930971 -2.02022,-1.685057 -0.36307,-0.763397 -0.36307,-1.806084 0,-1.480245 0.391,-2.178474 0.39101,-0.707538 1.32198,-1.089236 0.94029,-0.381698 2.17847,-0.381698 1.22888,0 2.08538,0.316531 0.86581,0.307219 1.32198,0.819254 0.46549,0.512034 0.55859,0.949591 0.10235,0.437556 0.10235,1.368527 z"
         style="font-style:normal;font-variant:normal;font-weight:normal;font-stretch:normal;font-size:14.67855453px;line-height:125%;font-family:Impact;-inkscape-font-specification:Impact;letter-spacing:0px;word-spacing:0px;fill:#d45500;fill-opacity:1;stroke:none;stroke-width:0.26458332px;stroke-linecap:butt;stroke-linejoin:miter;stroke-opacity:1"
         id="path887"
         inkscape:connector-curvature="0" />
      <path
         d="m 206.67026,67.903249 h -4.86898 v 2.671887 q 0,0.837875 0.12106,1.079927 0.12106,0.242052 0.46548,0.242052 0.42826,0 0.56789,-0.31653 0.14896,-0.32584 0.14896,-1.247502 v -1.629199 h 3.56562 v 0.912352 q 0,1.145094 -0.14895,1.759536 -0.13965,0.614441 -0.67031,1.312669 -0.53065,0.698229 -1.3499,1.051997 -0.80995,0.34446 -2.03883,0.34446 -1.19164,0 -2.10399,-0.34446 -0.91235,-0.344458 -1.42439,-0.94028 -0.50273,-0.605132 -0.69823,-1.321979 -0.1955,-0.726158 -0.1955,-2.103996 v -3.602859 q 0,-1.619889 0.43755,-2.550861 0.43756,-0.94028 1.4337,-1.433695 0.99614,-0.502725 2.29019,-0.502725 1.58265,0 2.60672,0.605132 1.03338,0.595822 1.44301,1.591961 0.41893,0.986829 0.41893,2.783603 z m -3.77043,-2.010898 v -0.903043 q 0,-0.9589 -0.10236,-1.238192 -0.10235,-0.279291 -0.41894,-0.279291 -0.391,0 -0.48409,0.242053 -0.0931,0.232743 -0.0931,1.27543 v 0.903043 z"
         style="font-style:normal;font-variant:normal;font-weight:normal;font-stretch:normal;font-size:14.67855453px;line-height:125%;font-family:Impact;-inkscape-font-specification:Impact;letter-spacing:0px;word-spacing:0px;fill:#2c2ca0;fill-opacity:1;stroke:none;stroke-width:0.26458332px;stroke-linecap:butt;stroke-linejoin:miter;stroke-opacity:1"
         id="path889"
         inkscape:connector-curvature="0" />
    </g>
    <text
       xml:space="preserve"
       style="font-style:normal;font-weight:normal;font-size:10.58333302px;line-height:125%;font-family:Sans;letter-spacing:0px;word-spacing:0px;fill:#000000;fill-opacity:1;stroke:none;stroke-width:0.26458332px;stroke-linecap:butt;stroke-linejoin:miter;stroke-opacity:1"
       x="112.18333"
       y="23.420834"
       id="text1001"><tspan
         sodipodi:role="line"
         id="tspan999"
         x="112.18333"
         y="23.420834"
         style="stroke-width:0.26458332px;fill:#ffffff;-inkscape-font-specification:Uroob;font-family:Uroob;font-weight:normal;font-style:normal;font-stretch:normal;font-variant:normal">1/1 remaining</tspan></text>
  </g>
</svg>
